<?xml version="1.0" encoding="UTF-8" standalone="no"?>
<svg
   sodipodi:docname="ui.svg"
   width="300"
   height="60"
   version="1.1"
   id="svg7"
   inkscape:version="1.1.1 (3bf5ae0d25, 2021-09-20)"
   xmlns:inkscape="http://www.inkscape.org/namespaces/inkscape"
   xmlns:sodipodi="http://sodipodi.sourceforge.net/DTD/sodipodi-0.dtd"
   xmlns:xlink="http://www.w3.org/1999/xlink"
   xmlns="http://www.w3.org/2000/svg"
   xmlns:svg="http://www.w3.org/2000/svg">
  <defs
     id="defs11" />
  <sodipodi:namedview
     id="namedview9"
     pagecolor="#ffffff"
     bordercolor="#666666"
     borderopacity="1.0"
     inkscape:pageshadow="2"
     inkscape:pageopacity="0.0"
     inkscape:pagecheckerboard="0"
     showgrid="false"
     width="250px"
     inkscape:zoom="0.85"
     inkscape:cx="27.058824"
     inkscape:cy="70.588235"
     inkscape:window-width="1280"
     inkscape:window-height="738"
     inkscape:window-x="-6"
     inkscape:window-y="-6"
     inkscape:window-maximized="1"
     inkscape:current-layer="svg7" />
  <defs
     id="defs747">
    <path
       d="M 37.75,9 C 40.649495,9 43,11.350505 43,14.25 v 19.5 C 43,36.649495 40.649495,39 37.75,39 H 10.25 C 7.3505051,39 5,36.649495 5,33.75 V 14.25 C 5,11.350505 7.3505051,9 10.25,9 Z m 2.75,9.351 -15.897602,8.74427 c -0.333425,0.183384 -0.729654,0.20376 -1.077036,0.06113 L 23.397602,27.09527 7.5,18.351 V 33.75 c 0,1.518783 1.2312169,2.75 2.75,2.75 h 27.5 c 1.518783,0 2.75,-1.231217 2.75,-2.75 z M 37.75,11.5 h -27.5 c -1.5187831,0 -2.75,1.231217 -2.75,2.75 v 1.249 L 24,24.573411 40.5,15.498 V 14.25 c 0,-1.518783 -1.231217,-2.75 -2.75,-2.75 z"
       id="nomail" />
    <path
       d="m 30.673662,10.999936 c -0.364404,0.767067 -0.593407,1.610921 -0.656123,2.500677 L 11.25,13.5 C 9.7312169,13.5 8.5,14.731217 8.5,16.25 L 8.4997107,16.842 23,25.542262 32.845807,19.634629 c 0.816189,0.602748 1.768005,1.032392 2.801241,1.234727 l -12.003928,7.20251 c -0.35187,0.211122 -0.781709,0.23458 -1.150905,0.07037 L 22.35688,28.071866 8.4997107,19.757 8.5,32.75 c 0,0.966498 0.7835017,1.75 1.75,1.75 h 25.5 c 0.966498,0 1.75,-0.783502 1.75,-1.75 l -6.13e-4,-11.767539 c 0.890016,-0.06273 1.734103,-0.291853 2.501349,-0.656442 L 40,32.75 C 40,35.09721 38.09721,37 35.75,37 H 10.25 C 7.9027898,37 6,35.09721 6,32.75 L 5.9989,17.635565 C 5.99496,17.580395 5.99466,17.524845 5.9980958,17.469288 L 6,16.25 c 0,-2.899495 2.3505051,-5.250064 5.25,-5.250064 z M 37,9 c 2.761424,0 5,2.238576 5,5 0,2.761424 -2.238576,5 -5,5 -2.761424,0 -5,-2.238576 -5,-5 0,-2.761424 2.238576,-5 5,-5 z"
       id="mail" />
  </defs>
  <use
     transform="matrix(1.5462185,0,0,1.5462185,-3.7236227,-5.3007471)"
     width="100%"
     height="100%"
     font-family="'DejaVu Sans'"
     xlink:href="#$MAILICON"
     id="use885"
     x="0"
     y="0" />
  <text
     xml:space="preserve"
     style="font-style:normal;font-weight:normal;font-size:24px;line-height:1.25;font-family:sans-serif;fill:#000000;fill-opacity:1;stroke:none"
     x="69.020218"
     y="29.062498"
     id="text25040"><tspan
       sodipodi:role="line"
       id="tspan25038"
       x="69.020218"
       y="29.062498"
       style="font-size:24px">$MAILSTATUSSTRING</tspan></text>
  <text
     xml:space="preserve"
     style="font-style:normal;font-variant:normal;font-weight:normal;font-stretch:normal;font-size:17.3333px;line-height:1.25;font-family:sans-serif;-inkscape-font-specification:'sans-serif, Normal';font-variant-ligatures:normal;font-variant-caps:normal;font-variant-numeric:normal;font-variant-east-asian:normal;fill:#000000;fill-opacity:1;stroke:none"
     x="68.737473"
     y="49.58881"
     id="text25040-9"><tspan
       sodipodi:role="line"
       id="tspan25038-7"
       x="68.737473"
       y="49.58881"
       style="font-style:normal;font-variant:normal;font-weight:normal;font-stretch:normal;font-size:17.3333px;font-family:sans-serif;-inkscape-font-specification:'sans-serif, Normal';font-variant-ligatures:normal;font-variant-caps:normal;font-variant-numeric:normal;font-variant-east-asian:normal">$MAILTIMESTAMPSTRING</tspan></text>
</svg>
